<svg viewBox="0 0 1024 1024" class="icon" xmlns="http://www.w3.org/2000/svg"><path d="M768 811c-24 0-43-19-43-43s19-43 43-43c94 0 171-76 171-170 0-90-70-165-160-171l-25-1-11-23c-42-89-133-147-231-147s-189 58-231 147l-11 23-25 2c-90 5-160 80-160 170 0 94 77 170 171 170 24 0 43 20 43 43s-19 43-43 43C115 811 0 696 0 555c0-126 93-233 215-253 60-106 174-174 297-174s237 68 297 174c123 20 215 127 215 253 0 141-115 256-256 256z" fill="#507C5C"/><path d="M512 939c-11 0-22-4-30-13L354 798c-17-16-17-43 0-60 16-17 44-17 60 0l98 98 98-98c16-17 43-17 60 0s17 44 0 60L542 926c-8 9-19 13-30 13z" fill="#CFF09E"/><path d="M512 939c-24 0-43-19-43-43V597c0-23 19-42 43-42s43 19 43 42v299c0 24-19 43-43 43z" fill="#CFF09E"/></svg>