<?xml version="1.0" standalone="no"?><!DOCTYPE svg PUBLIC "-//W3C//DTD SVG 1.1//EN" "http://www.w3.org/Graphics/SVG/1.1/DTD/svg11.dtd"><svg t="1661600673620" class="icon" viewBox="0 0 1107 1024" version="1.1" xmlns="http://www.w3.org/2000/svg" p-id="4127" width="216.2109375" height="200" xmlns:xlink="http://www.w3.org/1999/xlink"><path d="M1061.414995 202.571711a12.843046 12.843046 0 0 0-6.077151 1.012859c-27.347181 5.064293-168.13452 32.411474-204.597429 50.642928a89.769654 89.769654 0 0 0-33.424332 33.424332 310.532305 310.532305 0 0 0-51.655786-56.720079 232.329496 232.329496 0 0 0 1.012858-102.298714v-1.012859c-1.012859-4.051434-2.025717-9.115727-3.038575-13.167161v-2.025717c-1.012859-4.051434-2.025717-7.09001-3.038576-11.141444l-1.012859-2.025718a49.356597 49.356597 0 0 0-4.051434-11.141444v-1.012858c-2.025717-4.051434-3.038576-8.102868-5.064293-12.154303a1.012859 1.012859 0 0 0-1.012858-1.012858c-2.025717-3.038576-3.038576-7.09001-5.064293-10.128586l-1.012858-2.025717a41.041029 41.041029 0 0 1-5.064293-9.115727l-1.012859-1.012859a87.612265 87.612265 0 0 1-7.09001-10.128585l-1.012858-1.012859a44.079604 44.079604 0 0 0-6.077152-7.09001l-2.025717-2.025717a44.069476 44.069476 0 0 0-7.09001-6.077151l-2.025717-2.025717a47.604352 47.604352 0 0 0-9.115727-6.077152c-1.012859 0-1.012859-1.012859-2.025717-1.012858a30.324985 30.324985 0 0 0-8.102868-4.051434c-1.012859 0-2.025717-1.012859-3.038576-1.012859-3.038576-1.012859-5.064293-2.025717-8.102868-3.038576-1.012859 0-2.025717-1.012859-3.038576-1.012858a52.263501 52.263501 0 0 0-11.141444-2.025717h-16.205737a29.585598 29.585598 0 0 0-9.115727 2.025717c-1.012859 0-2.025717 1.012859-3.038576 1.012858a37.475767 37.475767 0 0 0-11.141444 5.064293 56.547893 56.547893 0 0 0-8.102868 5.064293c-1.012859 1.012859-2.025717 1.012859-3.038576 2.025717-2.025717 1.012859-3.038576 3.038576-5.064293 4.051434l-3.038575 3.038576-4.051435 4.051434c-1.012859 1.012859-1.012859 2.025717-2.025717 3.038576-1.012859 2.025717-2.025717 3.038576-3.038575 5.064293 0 1.012859-1.012859 2.025717-2.025718 3.038575-1.012859 2.025717-2.025717 3.038576-2.025717 5.064293 0 1.012859-1.012859 2.025717-1.012858 3.038576 0 2.025717-1.012859 3.038576-1.012859 5.064293 0 1.012859-1.012859 2.025717-1.012858 3.038575 0 2.025717-1.012859 3.038576-1.012859 5.064293v18.231454a57.125223 57.125223 0 0 0 1.012859 7.09001 57.125223 57.125223 0 0 0 1.012858 7.09001c0 2.025717 1.012859 4.051434 1.012859 6.077151v1.012859c1.012859 4.051434 1.012859 9.115727 2.025717 14.180019l2.025717 13.167162a165.663145 165.663145 0 0 1 2.025717 22.282888 391.601503 391.601503 0 0 0-48.617211-3.038576 468.588882 468.588882 0 0 0-54.694362 3.038576 197.689733 197.689733 0 0 1 2.025718-23.295747l2.025717-12.154303a78.202809 78.202809 0 0 0 2.025717-15.192878 57.125223 57.125223 0 0 0 1.012858-7.09001 57.125223 57.125223 0 0 0 1.012859-7.09001 28.511968 28.511968 0 0 1 1.012858-8.102868V60.771513c0-2.025717 0-3.038576-1.012858-4.051434 0-1.012859-1.012859-3.038576-1.012859-4.051434 0-2.025717-1.012859-3.038576-1.012858-4.051434s-1.012859-3.038576-1.012859-4.051435c-1.012859-2.025717-1.012859-3.038576-2.025717-5.064292-1.012859-1.012859-1.012859-2.025717-2.025717-4.051435s-2.025717-3.038576-3.038576-5.064292c-1.012859-1.012859-1.012859-2.025717-2.025717-3.038576s-2.025717-3.038576-4.051434-5.064293c-1.012859-1.012859-2.025717-2.025717-2.025717-3.038575a17.775668 17.775668 0 0 0-5.064293-4.051435c-1.012859-1.012859-2.025717-1.012859-3.038576-2.025717a26.557151 26.557151 0 0 0-9.115727-5.064293 118.838694 118.838694 0 0 0-11.141444-5.064292c-1.012859 0-2.025717-1.012859-3.038575-1.012859-3.038576-1.012859-6.077151-1.012859-9.115727-2.025717h-14.18002a60.639842 60.639842 0 0 0-12.154303 2.025717 3.717191 3.717191 0 0 0-3.038575 1.012859c-3.038576 1.012859-5.064293 2.025717-8.102869 3.038575-1.012859 0-2.025717 1.012859-3.038576 1.012859-3.038576 1.012859-5.064293 3.038576-8.102868 4.051434a3.534876 3.534876 0 0 0-2.025717 1.012859l-9.115727 6.077151-2.025717 2.025717-6.077152 6.077151-2.025717 2.025718c-2.025717 2.025717-4.051434 5.064293-6.077151 7.090009a3.534876 3.534876 0 0 0-1.012859 2.025718c-2.025717 3.038576-5.064293 6.077151-7.09001 9.115727l-1.012858 1.012858a93.334916 93.334916 0 0 0-5.064293 8.102869l-1.012858 2.025717a94.124946 94.124946 0 0 0-5.064293 10.128585 1.012859 1.012859 0 0 1-1.012859 1.012859 61.936301 61.936301 0 0 0-5.064293 12.154302v1.012859a57.115094 57.115094 0 0 0-4.051434 12.154303l-1.012858 2.025717c-1.012859 4.051434-2.025717 7.09001-3.038576 11.141444v2.025717c-1.012859 4.051434-2.025717 9.115727-3.038576 13.167161v1.012859a241.769337 241.769337 0 0 0 2.025717 104.324431 309.327003 309.327003 0 0 0-49.630069 57.732938 95.755648 95.755648 0 0 0-36.462908-37.475767c-36.462908-18.231454-176.237389-45.578635-204.597428-50.642928-2.025717 0-4.051434-1.012859-6.077151-1.012858a31.317587 31.317587 0 0 0-29.372899 22.282888c-37.475767 136.735905 48.617211 195.481701 125.594461 247.137488 16.205737 11.141444 32.411474 22.282888 47.604353 34.437191-26.334322 70.900099 1.012859 176.237389 74.951533 288.664688 75.964392 116.478734 201.558853 233.970326 292.716122 234.983185h1.012859c93.182987 0 208.648863-114.453017 278.536103-211.687438 32.411474-44.565776 133.697329-197.507418 98.24728-301.83185l-3.038576-9.115727c16.205737-12.154303 32.411474-23.295747 48.617211-34.437191 75.964392-51.655786 163.070227-110.401583 125.594461-247.137487-12.154303-8.102868-24.308605-17.218595-37.475767-17.218596z" fill="#2D2413" p-id="4128"></path><path d="M780.853175 438.567755s48.617211-140.787339 84.06726-158.005935c34.437191-17.218595 196.49456-47.604352 196.49456-47.604352 45.578635 166.108803-114.453017 189.40455-209.661721 291.703264z" fill="#FEBF32" p-id="4129"></path><path d="M816.303225 432.490603s30.385757-86.092977 51.655786-96.221562 120.530168-29.372898 120.530168-29.372899c28.36004 101.285856-69.88724 116.478734-128.633037 178.263106z" fill="#B37635" p-id="4130"></path><path d="M310.886805 438.567755s-48.617211-140.787339-84.06726-158.005935c-34.437191-17.218595-196.49456-47.604352-196.49456-47.604352-45.578635 166.108803 114.453017 189.40455 209.661721 291.703264z" fill="#FEBF32" p-id="4131"></path><path d="M275.436756 432.490603s-30.385757-86.092977-51.655787-96.221562-120.530168-29.372898-120.530168-29.372899c-28.36004 102.298714 69.88724 116.478734 128.633037 178.263106z" fill="#B37635" p-id="4132"></path><path d="M548.908566 184.340257c-231.944609 0-276.510386 170.160237-343.359051 327.153314-65.835806 153.9545 203.58457 486.172107 336.269041 487.184965 135.723046 1.012859 396.027695-333.230465 349.436202-473.004945-51.655786-153.9545-109.388724-341.333333-342.346192-341.333334z" fill="#FEBF32" p-id="4133"></path><path d="M416.224095 817.376855c0 71.912957 77.990109 144.838773 130.658754 144.838773s130.658754-72.925816 130.658753-144.838773-80.015826-105.33729-130.658753-105.33729-130.658754 33.424332-130.658754 105.33729z" fill="#F9F3E0" p-id="4134"></path><path d="M582.332898 792.055391a74.40459 74.40459 0 0 1 8.102869-2.025717c1.012859 0 2.025717-1.012859 3.038575-1.012859h2.025717c2.025717 0 4.051434-2.025717 6.077152-3.038576a24.095905 24.095905 0 0 0 9.115727-13.167161 44.727834 44.727834 0 0 0 3.038575-8.102868c0-1.012859 1.012859-1.012859 2.025717-1.012859a1.012859 1.012859 0 0 1 1.012859 1.012859 24.440277 24.440277 0 0 1 3.038576 8.102868 36.462908 36.462908 0 0 1 1.012858 21.27003 38.630425 38.630425 0 0 1-4.051434 13.167161 54.06639 54.06639 0 0 1-7.09001 10.128586c-3.038576 4.051434-5.064293 7.09001-5.064293 7.090009a21.786588 21.786588 0 0 1-35.450049-25.321463 42.053887 42.053887 0 0 1 13.167161-7.09001zM486.111335 825.479723s-2.025717-3.038576-5.064292-7.09001a64.427933 64.427933 0 0 1-6.077152-10.128585 33.00906 33.00906 0 0 1-4.051434-13.167162 69.401068 69.401068 0 0 1 1.012859-21.270029 24.440277 24.440277 0 0 1 3.038575-8.102869c0-1.012859 1.012859-1.012859 2.025717-1.012858l1.012859 1.012858s1.012859 3.038576 3.038576 8.102869a38.539268 38.539268 0 0 0 9.115727 13.167161c2.025717 1.012859 4.051434 3.038576 6.077151 3.038576h2.025717c1.012859 0 2.025717 1.012859 3.038576 1.012858a74.40459 74.40459 0 0 1 8.102868 2.025717 21.492859 21.492859 0 0 1-11.141444 41.527201 27.651039 27.651039 0 0 1-12.154303-9.115727z" fill="#6F491C" p-id="4135"></path><path d="M697.798773 410.207715s8.102868 2.025717 19.244313 6.077151a23.852819 23.852819 0 0 1 10.128586 5.064293l12.154302 6.077152a39.653412 39.653412 0 0 1 10.128586 8.102868l10.128585 8.102868c6.077151 6.077151 12.154303 12.154303 17.218596 18.231454a137.748764 137.748764 0 0 1 12.154303 17.218596 91.552285 91.552285 0 0 1 10.128585 18.231454 1.944688 1.944688 0 0 1-1.012858 3.038576 3.717191 3.717191 0 0 1-3.038576-1.012859 148.535707 148.535707 0 0 0-14.18002-14.18002c-4.051434-4.051434-10.128586-8.102868-15.192878-13.167161-6.077151-4.051434-12.154303-8.102868-19.244313-12.154303l-10.128585-4.051434c-3.038576-1.012859-6.077151-3.038576-9.115727-4.051434s-6.077151-1.012859-8.102869-2.025717c-3.038576 0-4.051434-2.025717-8.102868-2.025717a180.562295 180.562295 0 0 1-20.257171-1.012859 19.244313 19.244313 0 0 1 2.025717-38.488625c1.012859 1.012859 3.038576 1.012859 5.064292 2.025717zM401.031217 447.683482s-8.102868 0-20.257172 1.012858a23.84269 23.84269 0 0 0-8.102868 2.025717c-3.038576 1.012859-5.064293 1.012859-8.102868 2.025717a18.231454 18.231454 0 0 0-9.115727 4.051435l-10.128586 4.051434c-6.077151 4.051434-13.167161 8.102868-19.244313 12.154303a101.488427 101.488427 0 0 0-15.192878 13.167161 148.555964 148.555964 0 0 0-14.18002 14.18002 1.894045 1.894045 0 0 1-3.038575 0 3.717191 3.717191 0 0 1-1.012859-3.038576 143.046014 143.046014 0 0 1 10.128586-18.231454 137.748764 137.748764 0 0 1 12.154302-17.218596c5.064293-6.077151 11.141444-12.154303 17.218596-18.231454l10.128585-8.102868a39.653412 39.653412 0 0 1 10.128586-8.102868l12.154303-6.077152 10.128585-5.064293c11.141444-4.051434 19.244313-6.077151 19.244313-6.077151a19.54817 19.54817 0 1 1 11.141444 37.475767z" fill="#B3872D" p-id="4136"></path><path d="M773.763165 632.023739c-2.025717 0-3.038576 0-4.051434-1.012859-1.012859 0-53.681503-40.514342-104.324431-17.218595l-18.231454 8.102868 9.115727-18.231454a119.446409 119.446409 0 0 1 57.732937-52.668645 7.09001 7.09001 0 1 1 5.064293 13.167162 97.913037 97.913037 0 0 0-38.488625 28.360039c51.655786-11.141444 97.234421 23.295747 99.260139 25.321464a6.765895 6.765895 0 0 1 1.012858 10.128586 7.647082 7.647082 0 0 1-7.09001 4.051434zM430.404115 633.036597c-2.025717 0-3.038576 0-4.051434-1.012858-1.012859 0-53.681503-40.514342-104.324432-17.218596l-18.231454 8.102869 9.115727-18.231454a119.446409 119.446409 0 0 1 57.732938-52.668645 7.09001 7.09001 0 1 1 5.064293 13.167161 97.913037 97.913037 0 0 0-38.488625 28.36004c51.655786-11.141444 97.234421 23.295747 99.260138 25.321464a6.765895 6.765895 0 0 1 1.012859 10.128585c-3.038576 3.038576-5.064293 4.051434-7.09001 4.051434z" fill="#010101" p-id="4137"></path><path d="M729.197389 247.137488c41.527201-112.4273-29.372898-239.034619-88.118695-207.636004s29.372898 129.645895-41.5272 182.31454c65.835806 75.964392 129.645895 25.321464 129.645895 25.321464z" fill="#FEBF32" p-id="4138"></path><path d="M677.541602 123.568744a189.515964 189.515964 0 0 1 59.758655 10.128585c-14.18002-66.848665-57.732938-115.465875-96.221563-94.195845-31.398615 17.218595-20.257171 53.681503-15.192878 91.15727a211.981167 211.981167 0 0 1 51.655786-7.09001z" fill="#875929" p-id="4139"></path><path d="M362.542591 247.137488c-41.527201-112.4273 29.372898-239.034619 88.118695-207.636004s-29.372898 129.645895 41.527201 182.31454c-64.822948 75.964392-129.645895 25.321464-129.645896 25.321464z" fill="#FEBF32" p-id="4140"></path><path d="M415.211236 123.568744a189.515964 189.515964 0 0 0-59.758654 10.128585c14.18002-66.848665 57.732938-115.465875 96.221562-94.195845 31.398615 17.218595 20.257171 53.681503 15.192879 91.15727a211.981167 211.981167 0 0 0-51.655787-7.09001z" fill="#875929" p-id="4141"></path><path d="M571.191454 883.212661l-45.578635 6.077151-11.141444 5.064293a78.77001 78.77001 0 0 0-1.012859 43.552918c8.102868 29.372898 30.385757 45.578635 51.655787 39.501483s32.411474-31.398615 24.308605-60.771513a67.770366 67.770366 0 0 0-18.231454-33.424332z" fill="#EA755E" p-id="4142"></path><path d="M557.011434 980.447082a40.575114 40.575114 0 0 1-23.295747-8.102868 60.558813 60.558813 0 0 1-22.282888-34.437191 73.938675 73.938675 0 0 1 1.012859-44.565777v-1.012858l12.154302-5.064293 46.591494-6.077151 1.012859 1.012858a85.080119 85.080119 0 0 1 19.244312 33.424333 61.399486 61.399486 0 0 1-1.012858 40.514342 37.830267 37.830267 0 0 1-24.308606 22.282888 15.051078 15.051078 0 0 1-9.115727 2.025717z m-40.514342-85.080119a72.368744 72.368744 0 0 0 0 41.527201 66.058635 66.058635 0 0 0 20.257171 32.411474 31.499901 31.499901 0 0 0 29.372898 6.077151 32.58366 32.58366 0 0 0 21.27003-20.257171 58.907854 58.907854 0 0 0 1.012858-37.475766 68.074224 68.074224 0 0 0-17.218595-31.398616l-44.565776 6.077152z" fill="#414142" p-id="4143"></path><path d="M558.024293 949.048467a3.534876 3.534876 0 0 1-2.025717-1.012859l-14.18002-50.642927c0-1.012859 0-2.025717 1.012858-2.025718s2.025717 0 2.025718 1.012859l14.180019 50.642928c1.012859 1.012859 0 2.025717-1.012858 2.025717z" fill="#414142" p-id="4144"></path><path d="M498.265638 903.469832l-29.372898-42.540059a8.244669 8.244669 0 0 1 2.025717-11.141445 8.102868 8.102868 0 0 1 11.141444 2.025717l24.308605 34.437191 91.15727-11.141444a8.670069 8.670069 0 0 1 9.115727 7.09001c1.012859 5.064293-2.025717 8.102868-7.090009 9.115727z" fill="#231F20" p-id="4145"></path><path d="M796.046053 676.589515a60.163798 60.163798 0 0 1-85.080118 85.080119c-23.295747-23.295747-15.192878-99.260138-15.192879-99.260138s76.97725-9.115727 100.272997 14.180019zM295.693927 676.589515a60.163798 60.163798 0 0 0 85.080118 85.080119c23.295747-23.295747 15.192878-99.260138 15.192879-99.260138s-76.97725-9.115727-100.272997 14.180019z" fill="#F47C2A" p-id="4146"></path><path d="M524.59996 351.461919a50.713828 50.713828 0 0 1 70.900099 13.167161 51.4127 51.4127 0 0 1-12.154302 70.900099c-23.295747 15.192878-82.041543-67.861523-58.745797-84.06726zM526.625678 247.137488a51.817844 51.817844 0 0 1-32.411474 64.822947 50.9873 50.9873 0 0 1-64.822948-32.411474c-8.102868-27.347181 89.131553-59.758655 97.234422-32.411473zM660.323007 235.996044c18.231454 21.27003-59.758655 87.105836-77.990109 65.835806a50.349199 50.349199 0 0 1 6.077151-71.912958 52.212859 52.212859 0 0 1 71.912958 6.077152z" fill="#B37635" p-id="4147"></path></svg>